<?xml version="1.0" encoding="UTF-8" standalone="no"?>
<!DOCTYPE svg PUBLIC "-//W3C//DTD SVG 1.1//EN"
 "http://www.w3.org/Graphics/SVG/1.1/DTD/svg11.dtd">
<!-- Generated by graphviz version 2.38.0 (20140413.2041)
 -->
<!-- Title: Letvezi Pages: 1 -->
<svg width="703pt" height="348pt"
 viewBox="0.00 0.00 703.14 348.00" xmlns="http://www.w3.org/2000/svg" xmlns:xlink="http://www.w3.org/1999/xlink">
<g id="graph0" class="graph" transform="scale(1 1) rotate(0) translate(4 344)">
<title>Letvezi</title>
<polygon fill="white" stroke="none" points="-4,4 -4,-344 699.144,-344 699.144,4 -4,4"/>
<g id="clust1" class="cluster"><title>cluster_mainloop</title>
<polygon fill="none" stroke="none" points="8,-136 8,-260 351,-260 351,-136 8,-136"/>
</g>
<g id="clust2" class="cluster"><title>cluster_input_handler</title>
<polygon fill="none" stroke="none" points="359,-208 359,-332 541,-332 541,-208 359,-208"/>
</g>
<!-- MainLoop -->
<g id="node1" class="node"><title>MainLoop</title>
<ellipse fill="none" stroke="black" cx="266" cy="-234" rx="48.1917" ry="18"/>
<text text-anchor="middle" x="266" y="-230.3" font-family="Times,serif" font-size="14.00">MainLoop</text>
</g>
<!-- Apply acceleration -->
<g id="node2" class="node"><title>Apply acceleration</title>
<ellipse fill="none" stroke="black" cx="93" cy="-162" rx="77.1866" ry="18"/>
<text text-anchor="middle" x="93" y="-158.3" font-family="Times,serif" font-size="14.00">Apply acceleration</text>
</g>
<!-- MainLoop&#45;&gt;Apply acceleration -->
<g id="edge6" class="edge"><title>MainLoop&#45;&gt;Apply acceleration</title>
<path fill="none" stroke="black" d="M225.256,-216.514C199.488,-206.088 166.114,-192.584 139.339,-181.75"/>
<polygon fill="black" stroke="black" points="224.088,-219.817 234.671,-220.324 226.714,-213.328 224.088,-219.817"/>
<polygon fill="black" stroke="black" points="140.382,-178.396 129.799,-177.89 137.756,-184.885 140.382,-178.396"/>
</g>
<!-- Collision checking -->
<g id="node3" class="node"><title>Collision checking</title>
<ellipse fill="none" stroke="black" cx="266" cy="-162" rx="77.1866" ry="18"/>
<text text-anchor="middle" x="266" y="-158.3" font-family="Times,serif" font-size="14.00">Collision checking</text>
</g>
<!-- MainLoop&#45;&gt;Collision checking -->
<g id="edge7" class="edge"><title>MainLoop&#45;&gt;Collision checking</title>
<path fill="none" stroke="black" d="M266,-205.665C266,-200.687 266,-195.491 266,-190.507"/>
<polygon fill="black" stroke="black" points="262.5,-205.697 266,-215.697 269.5,-205.697 262.5,-205.697"/>
<polygon fill="black" stroke="black" points="269.5,-190.104 266,-180.104 262.5,-190.104 269.5,-190.104"/>
</g>
<!-- Game State -->
<g id="node7" class="node"><title>Game State</title>
<ellipse fill="none" stroke="black" cx="431" cy="-162" rx="51.9908" ry="18"/>
<text text-anchor="middle" x="431" y="-158.3" font-family="Times,serif" font-size="14.00">Game State</text>
</g>
<!-- MainLoop&#45;&gt;Game State -->
<g id="edge5" class="edge"><title>MainLoop&#45;&gt;Game State</title>
<path fill="none" stroke="black" d="M305.987,-216.036C331.432,-205.241 364.299,-191.297 389.947,-180.417"/>
<polygon fill="black" stroke="black" points="304.487,-212.87 296.649,-219.998 307.221,-219.314 304.487,-212.87"/>
<polygon fill="black" stroke="black" points="391.553,-183.537 399.392,-176.409 388.819,-177.093 391.553,-183.537"/>
</g>
<!-- Input Handler -->
<g id="node4" class="node"><title>Input Handler</title>
<ellipse fill="none" stroke="black" cx="450" cy="-234" rx="59.5901" ry="18"/>
<text text-anchor="middle" x="450" y="-230.3" font-family="Times,serif" font-size="14.00">Input Handler</text>
</g>
<!-- Input Handler&#45;&gt;Game State -->
<g id="edge2" class="edge"><title>Input Handler&#45;&gt;Game State</title>
<path fill="none" stroke="black" d="M445.303,-215.697C443.187,-207.898 440.638,-198.509 438.282,-189.829"/>
<polygon fill="black" stroke="black" points="441.64,-188.838 435.643,-180.104 434.884,-190.672 441.64,-188.838"/>
</g>
<!-- Change acceleration -->
<g id="node5" class="node"><title>Change acceleration</title>
<ellipse fill="none" stroke="black" cx="450" cy="-306" rx="82.5854" ry="18"/>
<text text-anchor="middle" x="450" y="-302.3" font-family="Times,serif" font-size="14.00">Change acceleration</text>
</g>
<!-- Change acceleration&#45;&gt;Input Handler -->
<g id="edge8" class="edge"><title>Change acceleration&#45;&gt;Input Handler</title>
<path fill="none" stroke="black" d="M450,-277.665C450,-272.687 450,-267.491 450,-262.507"/>
<polygon fill="black" stroke="black" points="446.5,-277.697 450,-287.697 453.5,-277.697 446.5,-277.697"/>
<polygon fill="black" stroke="black" points="453.5,-262.104 450,-252.104 446.5,-262.104 453.5,-262.104"/>
</g>
<!-- Keyboard/Mouse -->
<g id="node6" class="node"><title>Keyboard/Mouse</title>
<ellipse fill="none" stroke="black" cx="623" cy="-306" rx="72.2875" ry="18"/>
<text text-anchor="middle" x="623" y="-302.3" font-family="Times,serif" font-size="14.00">Keyboard/Mouse</text>
</g>
<!-- Keyboard/Mouse&#45;&gt;Input Handler -->
<g id="edge1" class="edge"><title>Keyboard/Mouse&#45;&gt;Input Handler</title>
<path fill="none" stroke="black" stroke-dasharray="5,2" d="M586.734,-290.326C559.583,-279.34 522.329,-264.266 493.562,-252.626"/>
<polygon fill="black" stroke="black" points="494.742,-249.328 484.159,-248.822 492.116,-255.817 494.742,-249.328"/>
</g>
<!-- Render Loop -->
<g id="node8" class="node"><title>Render Loop</title>
<ellipse fill="none" stroke="black" cx="431" cy="-90" rx="57.3905" ry="18"/>
<text text-anchor="middle" x="431" y="-86.3" font-family="Times,serif" font-size="14.00">Render Loop</text>
</g>
<!-- Game State&#45;&gt;Render Loop -->
<g id="edge3" class="edge"><title>Game State&#45;&gt;Render Loop</title>
<path fill="none" stroke="black" d="M431,-143.697C431,-135.983 431,-126.712 431,-118.112"/>
<polygon fill="black" stroke="black" points="434.5,-118.104 431,-108.104 427.5,-118.104 434.5,-118.104"/>
</g>
<!-- Screen -->
<g id="node9" class="node"><title>Screen</title>
<ellipse fill="none" stroke="black" cx="431" cy="-18" rx="34.394" ry="18"/>
<text text-anchor="middle" x="431" y="-14.3" font-family="Times,serif" font-size="14.00">Screen</text>
</g>
<!-- Render Loop&#45;&gt;Screen -->
<g id="edge4" class="edge"><title>Render Loop&#45;&gt;Screen</title>
<path fill="none" stroke="black" stroke-dasharray="5,2" d="M431,-71.6966C431,-63.9827 431,-54.7125 431,-46.1124"/>
<polygon fill="black" stroke="black" points="434.5,-46.1043 431,-36.1043 427.5,-46.1044 434.5,-46.1043"/>
</g>
</g>
</svg>
