<?xml version="1.0" encoding="UTF-8" standalone="no"?>
<!DOCTYPE svg PUBLIC "-//W3C//DTD SVG 1.1//EN"
 "http://www.w3.org/Graphics/SVG/1.1/DTD/svg11.dtd">
<!-- Generated by graphviz version 2.38.0 (20140413.2041)
 -->
<!-- Title: Letvezi Pages: 1 -->
<svg width="944pt" height="1194pt"
 viewBox="0.00 0.00 943.53 1194.00" xmlns="http://www.w3.org/2000/svg" xmlns:xlink="http://www.w3.org/1999/xlink">
<g id="graph0" class="graph" transform="scale(1 1) rotate(0) translate(4 1190)">
<title>Letvezi</title>
<polygon fill="white" stroke="none" points="-4,4 -4,-1190 939.534,-1190 939.534,4 -4,4"/>
<g id="clust1" class="cluster"><title>cluster_main</title>
<polygon fill="none" stroke="none" points="8,-404 8,-510 127.991,-510 127.991,-404 8,-404"/>
</g>
<g id="clust3" class="cluster"><title>cluster_common</title>
<polygon fill="none" stroke="none" points="184.388,-658 184.388,-926 741.646,-926 741.646,-658 184.388,-658"/>
</g>
<g id="clust4" class="cluster"><title>cluster_game_state</title>
<polygon fill="none" stroke="none" points="194.137,-8 194.137,-650 927.534,-650 927.534,-8 194.137,-8"/>
</g>
<g id="clust5" class="cluster"><title>cluster_s_menu</title>
<polygon fill="none" stroke="none" points="414.72,-76 414.72,-128 546.41,-128 546.41,-76 414.72,-76"/>
</g>
<g id="clust6" class="cluster"><title>cluster_s_high_scores</title>
<polygon fill="none" stroke="none" points="440.068,-16 440.068,-68 521.062,-68 521.062,-16 440.068,-16"/>
</g>
<g id="clust7" class="cluster"><title>cluster_s_running</title>
<polygon fill="none" stroke="none" points="386.572,-136 386.572,-642 919.534,-642 919.534,-136 386.572,-136"/>
</g>
<g id="clust8" class="cluster"><title>cluster_r_entities</title>
<polygon fill="none" stroke="none" points="416.67,-366 416.67,-634 911.534,-634 911.534,-366 416.67,-366"/>
</g>
<g id="clust12" class="cluster"><title>cluster_r_player_info</title>
<polygon fill="none" stroke="none" points="394.572,-144 394.572,-358 739.046,-358 739.046,-144 394.572,-144"/>
</g>
<!-- Game State -->
<g id="node1" class="node"><title>Game State</title>
<ellipse fill="none" stroke="black" cx="67.9954" cy="-484" rx="51.9908" ry="18"/>
<text text-anchor="middle" x="67.9954" y="-480.3" font-family="Times,serif" font-size="14.00">Game State</text>
</g>
<!-- Scene State -->
<g id="node2" class="node"><title>Scene State</title>
<ellipse fill="none" stroke="black" cx="67.9954" cy="-430" rx="51.9908" ry="18"/>
<text text-anchor="middle" x="67.9954" y="-426.3" font-family="Times,serif" font-size="14.00">Scene State</text>
</g>
<!-- Game State&#45;&gt;Scene State -->
<g id="edge16" class="edge"><title>Game State&#45;&gt;Scene State</title>
<path fill="none" stroke="black" d="M67.9954,-466.052C67.9954,-466.018 67.9954,-466 67.9954,-466 67.9954,-466 67.9954,-462.304 67.9954,-458.257"/>
<polygon fill="black" stroke="black" points="71.4955,-457.948 67.9954,-447.948 64.4955,-457.948 71.4955,-457.948"/>
</g>
<!-- Persistent Data -->
<g id="node3" class="node"><title>Persistent Data</title>
<ellipse fill="none" stroke="black" cx="256.082" cy="-846" rx="63.8893" ry="18"/>
<text text-anchor="middle" x="256.082" y="-842.3" font-family="Times,serif" font-size="14.00">Persistent Data</text>
</g>
<!-- Game State&#45;&gt;Persistent Data -->
<g id="edge14" class="edge"><title>Game State&#45;&gt;Persistent Data</title>
<path fill="none" stroke="black" d="M75.1127,-501.861C94.9147,-559.677 155.991,-738 155.991,-738 155.991,-738 202.379,-788.559 231.677,-820.491"/>
<polygon fill="black" stroke="black" points="229.379,-823.164 238.719,-828.166 234.537,-818.431 229.379,-823.164"/>
</g>
<!-- Extra -->
<g id="node6" class="node"><title>Extra</title>
<ellipse fill="none" stroke="black" cx="256.082" cy="-711" rx="29.795" ry="18"/>
<text text-anchor="middle" x="256.082" y="-707.3" font-family="Times,serif" font-size="14.00">Extra</text>
</g>
<!-- Game State&#45;&gt;Extra -->
<g id="edge15" class="edge"><title>Game State&#45;&gt;Extra</title>
<path fill="none" stroke="black" d="M78.141,-501.872C100.477,-545.519 155.991,-654 155.991,-654 155.991,-654 195.437,-676.691 224.553,-693.439"/>
<polygon fill="black" stroke="black" points="223.167,-696.679 233.581,-698.632 226.658,-690.612 223.167,-696.679"/>
</g>
<!-- Running -->
<g id="node13" class="node"><title>Running</title>
<ellipse fill="none" stroke="black" cx="256.082" cy="-376" rx="40.8928" ry="18"/>
<text text-anchor="middle" x="256.082" y="-372.3" font-family="Times,serif" font-size="14.00">Running</text>
</g>
<!-- Scene State&#45;&gt;Running -->
<g id="edge21" class="edge"><title>Scene State&#45;&gt;Running</title>
<path fill="none" stroke="black" d="M107.153,-418.157C130.527,-410.903 155.991,-403 155.991,-403 155.991,-403 183.308,-395.557 209.257,-388.486"/>
<polygon fill="black" stroke="black" points="209.402,-388.447 214.14,-383.01 220.98,-385.292 216.243,-390.729 209.402,-388.447"/>
</g>
<!-- Menu -->
<g id="node14" class="node"><title>Menu</title>
<ellipse fill="none" stroke="black" cx="256.082" cy="-322" rx="31.6951" ry="18"/>
<text text-anchor="middle" x="256.082" y="-318.3" font-family="Times,serif" font-size="14.00">Menu</text>
</g>
<!-- Scene State&#45;&gt;Menu -->
<g id="edge17" class="edge"><title>Scene State&#45;&gt;Menu</title>
<path fill="none" stroke="black" d="M87.0209,-413.217C112.502,-389.491 155.991,-349 155.991,-349 155.991,-349 187.606,-340.386 215.121,-332.888"/>
<polygon fill="black" stroke="black" points="215.374,-332.82 220.111,-327.383 226.951,-329.665 222.214,-335.102 215.374,-332.82"/>
</g>
<!-- High Scores -->
<g id="node15" class="node"><title>High Scores</title>
<ellipse fill="none" stroke="black" cx="256.082" cy="-268" rx="53.8905" ry="18"/>
<text text-anchor="middle" x="256.082" y="-264.3" font-family="Times,serif" font-size="14.00">High Scores</text>
</g>
<!-- Scene State&#45;&gt;High Scores -->
<g id="edge18" class="edge"><title>Scene State&#45;&gt;High Scores</title>
<path fill="none" stroke="black" d="M83.5565,-412.754C108.322,-377.973 155.991,-304 155.991,-304 155.991,-304 186.287,-295.745 213.376,-286.842"/>
<polygon fill="black" stroke="black" points="213.718,-286.726 218.116,-281.011 225.082,-282.872 220.685,-288.587 213.718,-286.726"/>
</g>
<!-- Credits -->
<g id="node16" class="node"><title>Credits</title>
<ellipse fill="none" stroke="black" cx="256.082" cy="-484" rx="36.2938" ry="18"/>
<text text-anchor="middle" x="256.082" y="-480.3" font-family="Times,serif" font-size="14.00">Credits</text>
</g>
<!-- Scene State&#45;&gt;Credits -->
<g id="edge19" class="edge"><title>Scene State&#45;&gt;Credits</title>
<path fill="none" stroke="black" d="M96.5213,-445.346C122.008,-455.453 155.991,-466 155.991,-466 155.991,-466 182.369,-473.187 207.906,-478.909"/>
<polygon fill="black" stroke="black" points="208.136,-478.959 214.843,-476.311 219.867,-481.483 213.16,-484.132 208.136,-478.959"/>
</g>
<!-- Quit Game -->
<g id="node17" class="node"><title>Quit Game</title>
<ellipse fill="none" stroke="black" cx="256.082" cy="-430" rx="50.0912" ry="18"/>
<text text-anchor="middle" x="256.082" y="-426.3" font-family="Times,serif" font-size="14.00">Quit Game</text>
</g>
<!-- Scene State&#45;&gt;Quit Game -->
<g id="edge20" class="edge"><title>Scene State&#45;&gt;Quit Game</title>
<path fill="none" stroke="black" d="M120.337,-430C143.056,-430 169.958,-430 193.727,-430"/>
<polygon fill="black" stroke="black" points="193.832,-430 199.832,-426 205.832,-430 199.832,-434 193.832,-430"/>
</g>
<!-- High Scores [on disk] -->
<g id="node4" class="node"><title>High Scores [on disk]</title>
<ellipse fill="none" stroke="black" cx="480.565" cy="-900" rx="88.2844" ry="18"/>
<text text-anchor="middle" x="480.565" y="-896.3" font-family="Times,serif" font-size="14.00">High Scores [on disk]</text>
</g>
<!-- Persistent Data&#45;&gt;High Scores [on disk] -->
<g id="edge6" class="edge"><title>Persistent Data&#45;&gt;High Scores [on disk]</title>
<path fill="none" stroke="black" d="M305.084,-857.651C336.591,-865.298 378.235,-875.406 412.936,-883.828"/>
<polygon fill="black" stroke="black" points="412.45,-887.312 422.993,-886.269 414.101,-880.509 412.45,-887.312"/>
</g>
<!-- User information -->
<g id="node5" class="node"><title>User information</title>
<ellipse fill="none" stroke="black" cx="480.565" cy="-846" rx="71.4873" ry="18"/>
<text text-anchor="middle" x="480.565" y="-842.3" font-family="Times,serif" font-size="14.00">User information</text>
</g>
<!-- Persistent Data&#45;&gt;User information -->
<g id="edge7" class="edge"><title>Persistent Data&#45;&gt;User information</title>
<path fill="none" stroke="black" d="M319.945,-846C344.447,-846 372.84,-846 398.825,-846"/>
<polygon fill="black" stroke="black" points="399.032,-849.5 409.032,-846 399.032,-842.5 399.032,-849.5"/>
</g>
<!-- Background entities -->
<g id="node7" class="node"><title>Background entities</title>
<ellipse fill="none" stroke="black" cx="480.565" cy="-684" rx="81.4863" ry="18"/>
<text text-anchor="middle" x="480.565" y="-680.3" font-family="Times,serif" font-size="14.00">Background entities</text>
</g>
<!-- Extra&#45;&gt;Background entities -->
<g id="edge8" class="edge"><title>Extra&#45;&gt;Background entities</title>
<path fill="none" stroke="black" d="M285.712,-707.525C314.215,-704.067 359.293,-698.596 398.81,-693.8"/>
<polygon fill="black" stroke="black" points="399.483,-697.244 408.989,-692.565 398.64,-690.295 399.483,-697.244"/>
</g>
<!-- RNGs -->
<g id="node8" class="node"><title>RNGs</title>
<ellipse fill="none" stroke="black" cx="480.565" cy="-738" rx="32.4942" ry="18"/>
<text text-anchor="middle" x="480.565" y="-734.3" font-family="Times,serif" font-size="14.00">RNGs</text>
</g>
<!-- Extra&#45;&gt;RNGs -->
<g id="edge10" class="edge"><title>Extra&#45;&gt;RNGs</title>
<path fill="none" stroke="black" d="M285.712,-714.475C324.501,-719.182 393.989,-727.615 438.379,-733.002"/>
<polygon fill="black" stroke="black" points="438.194,-736.505 448.543,-734.235 439.037,-729.556 438.194,-736.505"/>
</g>
<!-- Defaults -->
<g id="node9" class="node"><title>Defaults</title>
<ellipse fill="none" stroke="black" cx="480.565" cy="-792" rx="40.0939" ry="18"/>
<text text-anchor="middle" x="480.565" y="-788.3" font-family="Times,serif" font-size="14.00">Defaults</text>
</g>
<!-- Extra&#45;&gt;Defaults -->
<g id="edge11" class="edge"><title>Extra&#45;&gt;Defaults</title>
<path fill="none" stroke="black" d="M281.135,-721.03C318.582,-736.647 386.572,-765 386.572,-765 386.572,-765 412.064,-772.401 436.354,-779.454"/>
<polygon fill="black" stroke="black" points="435.676,-782.901 446.255,-782.329 437.628,-776.179 435.676,-782.901"/>
</g>
<!-- Stars -->
<g id="node10" class="node"><title>Stars</title>
<ellipse fill="none" stroke="black" cx="669.302" cy="-684" rx="28.6953" ry="18"/>
<text text-anchor="middle" x="669.302" y="-680.3" font-family="Times,serif" font-size="14.00">Stars</text>
</g>
<!-- Background entities&#45;&gt;Stars -->
<g id="edge9" class="edge"><title>Background entities&#45;&gt;Stars</title>
<path fill="none" stroke="black" d="M561.842,-684C585.639,-684 610.593,-684 630.356,-684"/>
<polygon fill="black" stroke="black" points="630.471,-687.5 640.471,-684 630.471,-680.5 630.471,-687.5"/>
</g>
<!-- Player Position -->
<g id="node11" class="node"><title>Player Position</title>
<ellipse fill="none" stroke="black" cx="669.302" cy="-819" rx="64.189" ry="18"/>
<text text-anchor="middle" x="669.302" y="-815.3" font-family="Times,serif" font-size="14.00">Player Position</text>
</g>
<!-- Defaults&#45;&gt;Player Position -->
<g id="edge12" class="edge"><title>Defaults&#45;&gt;Player Position</title>
<path fill="none" stroke="black" d="M519.354,-797.464C542.988,-800.881 574.092,-805.378 601.761,-809.379"/>
<polygon fill="black" stroke="black" points="601.382,-812.86 611.78,-810.828 602.383,-805.932 601.382,-812.86"/>
</g>
<!-- Resolution -->
<g id="node12" class="node"><title>Resolution</title>
<ellipse fill="none" stroke="black" cx="669.302" cy="-765" rx="48.9926" ry="18"/>
<text text-anchor="middle" x="669.302" y="-761.3" font-family="Times,serif" font-size="14.00">Resolution</text>
</g>
<!-- Defaults&#45;&gt;Resolution -->
<g id="edge13" class="edge"><title>Defaults&#45;&gt;Resolution</title>
<path fill="none" stroke="black" d="M519.354,-786.536C546.451,-782.618 583.367,-777.281 613.668,-772.899"/>
<polygon fill="black" stroke="black" points="614.27,-776.349 623.666,-771.454 613.268,-769.421 614.27,-776.349"/>
</g>
<!-- Entities -->
<g id="node20" class="node"><title>Entities</title>
<ellipse fill="none" stroke="black" cx="480.565" cy="-473" rx="37.8943" ry="18"/>
<text text-anchor="middle" x="480.565" y="-469.3" font-family="Times,serif" font-size="14.00">Entities</text>
</g>
<!-- Running&#45;&gt;Entities -->
<g id="edge26" class="edge"><title>Running&#45;&gt;Entities</title>
<path fill="none" stroke="black" d="M291.183,-385.292C319.847,-393.102 356.173,-403 356.173,-403 356.173,-403 410.053,-433.566 446.605,-454.302"/>
<polygon fill="black" stroke="black" points="445.056,-457.447 455.481,-459.337 448.51,-451.359 445.056,-457.447"/>
</g>
<!-- Player Information -->
<g id="node31" class="node"><title>Player Information</title>
<ellipse fill="none" stroke="black" cx="480.565" cy="-278" rx="77.9862" ry="18"/>
<text text-anchor="middle" x="480.565" y="-274.3" font-family="Times,serif" font-size="14.00">Player Information</text>
</g>
<!-- Running&#45;&gt;Player Information -->
<g id="edge27" class="edge"><title>Running&#45;&gt;Player Information</title>
<path fill="none" stroke="black" d="M291.183,-366.708C319.847,-358.898 356.173,-349 356.173,-349 356.173,-349 405.457,-320.642 441.731,-299.77"/>
<polygon fill="black" stroke="black" points="443.713,-302.667 450.635,-294.646 440.222,-296.6 443.713,-302.667"/>
</g>
<!-- Menu entries -->
<g id="node18" class="node"><title>Menu entries</title>
<ellipse fill="none" stroke="black" cx="480.565" cy="-102" rx="57.6901" ry="18"/>
<text text-anchor="middle" x="480.565" y="-98.3" font-family="Times,serif" font-size="14.00">Menu entries</text>
</g>
<!-- Menu&#45;&gt;Menu entries -->
<g id="edge22" class="edge"><title>Menu&#45;&gt;Menu entries</title>
<path fill="none" stroke="black" d="M285.212,-314.335C314.508,-306.353 356.173,-295 356.173,-295 356.173,-295 386.572,-140 386.572,-140 386.572,-140 411.289,-129.9 435.237,-120.114"/>
<polygon fill="black" stroke="black" points="436.74,-123.281 444.673,-116.258 434.092,-116.801 436.74,-123.281"/>
</g>
<!-- High Scores&#45;&gt;Scene State -->
<g id="edge24" class="edge"><title>High Scores&#45;&gt;Scene State</title>
<path fill="none" stroke="black" d="M204.956,-273.757C180.378,-279.355 155.991,-286 155.991,-286 155.991,-286 107.302,-361.555 82.7741,-403.386"/>
<polygon fill="black" stroke="black" points="79.6246,-401.841 77.6549,-412.252 85.6865,-405.342 79.6246,-401.841"/>
<text text-anchor="middle" x="93.2379" y="-312.081" font-family="Times,serif" font-size="14.00">Previous State</text>
</g>
<!-- Points -->
<g id="node19" class="node"><title>Points</title>
<ellipse fill="none" stroke="black" cx="480.565" cy="-42" rx="32.4942" ry="18"/>
<text text-anchor="middle" x="480.565" y="-38.3" font-family="Times,serif" font-size="14.00">Points</text>
</g>
<!-- High Scores&#45;&gt;Points -->
<g id="edge23" class="edge"><title>High Scores&#45;&gt;Points</title>
<path fill="none" stroke="black" stroke-dasharray="5,2" d="M268.802,-250.261C300.677,-202.013 386.572,-72 386.572,-72 386.572,-72 416.58,-62.3194 442.503,-53.9565"/>
<polygon fill="black" stroke="black" points="443.725,-57.24 452.167,-50.8387 441.576,-50.5781 443.725,-57.24"/>
</g>
<!-- Credits&#45;&gt;Scene State -->
<g id="edge25" class="edge"><title>Credits&#45;&gt;Scene State</title>
<path fill="none" stroke="black" d="M230.587,-471.103C201.244,-460.33 155.991,-448 155.991,-448 155.991,-448 142.633,-443.854 126.386,-439.353"/>
<polygon fill="black" stroke="black" points="127.133,-435.93 116.566,-436.691 125.301,-442.686 127.133,-435.93"/>
<text text-anchor="middle" x="218.059" y="-451.29" font-family="Times,serif" font-size="14.00">Previous State</text>
</g>
<!-- Position -->
<g id="node21" class="node"><title>Position</title>
<ellipse fill="none" stroke="black" cx="480.565" cy="-527" rx="39.7935" ry="18"/>
<text text-anchor="middle" x="480.565" y="-523.3" font-family="Times,serif" font-size="14.00">Position</text>
</g>
<!-- Entities&#45;&gt;Position -->
<g id="edge37" class="edge"><title>Entities&#45;&gt;Position</title>
<path fill="none" stroke="black" d="M480.565,-490.948C480.565,-490.982 480.565,-491 480.565,-491 480.565,-491 480.565,-494.696 480.565,-498.743"/>
<polygon fill="black" stroke="black" points="477.065,-499.052 480.565,-509.052 484.065,-499.052 477.065,-499.052"/>
</g>
<!-- Acceleration -->
<g id="node22" class="node"><title>Acceleration</title>
<ellipse fill="none" stroke="black" cx="480.565" cy="-581" rx="55.7903" ry="18"/>
<text text-anchor="middle" x="480.565" y="-577.3" font-family="Times,serif" font-size="14.00">Acceleration</text>
</g>
<!-- Entities&#45;&gt;Acceleration -->
<g id="edge38" class="edge"><title>Entities&#45;&gt;Acceleration</title>
<path fill="none" stroke="black" d="M448.218,-482.292C421.029,-490.102 386.572,-500 386.572,-500 386.572,-500 371.373,-509 371.373,-509 371.373,-509 371.373,-545 371.373,-545 371.373,-545 386.572,-554 386.572,-554 386.572,-554 407.148,-559.91 429.045,-566.201"/>
<polygon fill="black" stroke="black" points="428.213,-569.603 438.791,-569 430.146,-562.875 428.213,-569.603"/>
</g>
<!-- Player -->
<g id="node23" class="node"><title>Player</title>
<ellipse fill="none" stroke="black" cx="669.302" cy="-554" rx="33.2948" ry="18"/>
<text text-anchor="middle" x="669.302" y="-550.3" font-family="Times,serif" font-size="14.00">Player</text>
</g>
<!-- Entities&#45;&gt;Player -->
<g id="edge32" class="edge"><title>Entities&#45;&gt;Player</title>
<path fill="none" stroke="black" d="M512.622,-482.595C537.741,-490.356 568.957,-500 568.957,-500 568.957,-500 604.957,-527 604.957,-527 604.957,-527 617.436,-532.319 631.317,-538.235"/>
<polygon fill="black" stroke="black" points="631.498,-538.313 638.586,-536.986 642.537,-543.018 635.449,-544.345 631.498,-538.313"/>
</g>
<!-- Enemy -->
<g id="node24" class="node"><title>Enemy</title>
<ellipse fill="none" stroke="black" cx="669.302" cy="-608" rx="36.2938" ry="18"/>
<text text-anchor="middle" x="669.302" y="-604.3" font-family="Times,serif" font-size="14.00">Enemy</text>
</g>
<!-- Entities&#45;&gt;Enemy -->
<g id="edge33" class="edge"><title>Entities&#45;&gt;Enemy</title>
<path fill="none" stroke="black" d="M512.622,-482.595C537.741,-490.356 568.957,-500 568.957,-500 568.957,-500 604.957,-581 604.957,-581 604.957,-581 616.52,-585.929 629.765,-591.574"/>
<polygon fill="black" stroke="black" points="630.031,-591.688 637.119,-590.361 641.07,-596.393 633.982,-597.72 630.031,-591.688"/>
</g>
<!-- Powerups -->
<g id="node25" class="node"><title>Powerups</title>
<ellipse fill="none" stroke="black" cx="669.302" cy="-392" rx="45.4919" ry="18"/>
<text text-anchor="middle" x="669.302" y="-388.3" font-family="Times,serif" font-size="14.00">Powerups</text>
</g>
<!-- Entities&#45;&gt;Powerups -->
<g id="edge34" class="edge"><title>Entities&#45;&gt;Powerups</title>
<path fill="none" stroke="black" d="M508.95,-461.016C545.302,-445.107 604.957,-419 604.957,-419 604.957,-419 614.68,-414.856 626.508,-409.814"/>
<polygon fill="black" stroke="black" points="626.704,-409.731 630.655,-403.698 637.743,-405.025 633.792,-411.058 626.704,-409.731"/>
</g>
<!-- Enemy Bullet -->
<g id="node26" class="node"><title>Enemy Bullet</title>
<ellipse fill="none" stroke="black" cx="669.302" cy="-446" rx="59.5901" ry="18"/>
<text text-anchor="middle" x="669.302" y="-442.3" font-family="Times,serif" font-size="14.00">Enemy Bullet</text>
</g>
<!-- Entities&#45;&gt;Enemy Bullet -->
<g id="edge36" class="edge"><title>Entities&#45;&gt;Enemy Bullet</title>
<path fill="none" stroke="black" d="M517.128,-467.858C541.388,-464.35 574.23,-459.602 603.106,-455.427"/>
<polygon fill="black" stroke="black" points="603.326,-455.395 608.692,-450.577 615.202,-453.678 609.836,-458.495 603.326,-455.395"/>
</g>
<!-- Player Bullet -->
<g id="node27" class="node"><title>Player Bullet</title>
<ellipse fill="none" stroke="black" cx="669.302" cy="-500" rx="57.3905" ry="18"/>
<text text-anchor="middle" x="669.302" y="-496.3" font-family="Times,serif" font-size="14.00">Player Bullet</text>
</g>
<!-- Entities&#45;&gt;Player Bullet -->
<g id="edge35" class="edge"><title>Entities&#45;&gt;Player Bullet</title>
<path fill="none" stroke="black" d="M517.128,-478.142C541.851,-481.717 575.487,-486.58 604.755,-490.812"/>
<polygon fill="black" stroke="black" points="605.116,-490.864 611.627,-487.764 616.992,-492.581 610.482,-495.681 605.116,-490.864"/>
</g>
<!-- Enemy Health -->
<g id="node28" class="node"><title>Enemy Health</title>
<ellipse fill="none" stroke="black" cx="836.59" cy="-608" rx="61.99" ry="18"/>
<text text-anchor="middle" x="836.59" y="-604.3" font-family="Times,serif" font-size="14.00">Enemy Health</text>
</g>
<!-- Enemy&#45;&gt;Enemy Health -->
<g id="edge39" class="edge"><title>Enemy&#45;&gt;Enemy Health</title>
<path fill="none" stroke="black" d="M705.76,-608C722.963,-608 744.269,-608 764.612,-608"/>
<polygon fill="black" stroke="black" points="764.816,-611.5 774.816,-608 764.816,-604.5 764.816,-611.5"/>
</g>
<!-- Shield Powerup -->
<g id="node29" class="node"><title>Shield Powerup</title>
<ellipse fill="none" stroke="black" cx="836.59" cy="-392" rx="66.8882" ry="18"/>
<text text-anchor="middle" x="836.59" y="-388.3" font-family="Times,serif" font-size="14.00">Shield Powerup</text>
</g>
<!-- Powerups&#45;&gt;Shield Powerup -->
<g id="edge40" class="edge"><title>Powerups&#45;&gt;Shield Powerup</title>
<path fill="none" stroke="black" d="M715.031,-392C728.102,-392 742.789,-392 757.297,-392"/>
<polygon fill="black" stroke="black" points="757.402,-392 763.401,-388 769.402,-392 763.402,-396 757.402,-392"/>
</g>
<!-- Bullet Powerup -->
<g id="node30" class="node"><title>Bullet Powerup</title>
<ellipse fill="none" stroke="black" cx="836.59" cy="-446" rx="65.7887" ry="18"/>
<text text-anchor="middle" x="836.59" y="-442.3" font-family="Times,serif" font-size="14.00">Bullet Powerup</text>
</g>
<!-- Powerups&#45;&gt;Bullet Powerup -->
<g id="edge41" class="edge"><title>Powerups&#45;&gt;Bullet Powerup</title>
<path fill="none" stroke="black" d="M704.951,-403.32C727.261,-410.609 756.712,-420.231 782.003,-428.493"/>
<polygon fill="black" stroke="black" points="782.255,-428.575 789.2,-426.636 793.661,-432.302 786.716,-434.241 782.255,-428.575"/>
</g>
<!-- Current Points -->
<g id="node32" class="node"><title>Current Points</title>
<ellipse fill="none" stroke="black" cx="669.302" cy="-170" rx="61.99" ry="18"/>
<text text-anchor="middle" x="669.302" y="-166.3" font-family="Times,serif" font-size="14.00">Current Points</text>
</g>
<!-- Player Information&#45;&gt;Current Points -->
<g id="edge28" class="edge"><title>Player Information&#45;&gt;Current Points</title>
<path fill="none" stroke="black" d="M507.432,-261.02C543.615,-237.268 604.957,-197 604.957,-197 604.957,-197 613.452,-193.379 624.221,-188.789"/>
<polygon fill="black" stroke="black" points="625.837,-191.905 633.664,-184.764 623.092,-185.465 625.837,-191.905"/>
</g>
<!-- Health -->
<g id="node33" class="node"><title>Health</title>
<ellipse fill="none" stroke="black" cx="669.302" cy="-224" rx="34.394" ry="18"/>
<text text-anchor="middle" x="669.302" y="-220.3" font-family="Times,serif" font-size="14.00">Health</text>
</g>
<!-- Player Information&#45;&gt;Health -->
<g id="edge29" class="edge"><title>Player Information&#45;&gt;Health</title>
<path fill="none" stroke="black" d="M530.14,-263.953C560.977,-255.036 600.357,-243.648 629.179,-235.313"/>
<polygon fill="black" stroke="black" points="630.268,-238.642 638.902,-232.502 628.323,-231.918 630.268,-238.642"/>
</g>
<!-- Shield -->
<g id="node34" class="node"><title>Shield</title>
<ellipse fill="none" stroke="black" cx="669.302" cy="-278" rx="33.2948" ry="18"/>
<text text-anchor="middle" x="669.302" y="-274.3" font-family="Times,serif" font-size="14.00">Shield</text>
</g>
<!-- Player Information&#45;&gt;Shield -->
<g id="edge30" class="edge"><title>Player Information&#45;&gt;Shield</title>
<path fill="none" stroke="black" d="M558.596,-278C581.59,-278 605.947,-278 625.855,-278"/>
<polygon fill="black" stroke="black" points="626.124,-281.5 636.124,-278 626.124,-274.5 626.124,-281.5"/>
</g>
<!-- Bullet Level -->
<g id="node35" class="node"><title>Bullet Level</title>
<ellipse fill="none" stroke="black" cx="669.302" cy="-332" rx="54.6905" ry="18"/>
<text text-anchor="middle" x="669.302" y="-328.3" font-family="Times,serif" font-size="14.00">Bullet Level</text>
</g>
<!-- Player Information&#45;&gt;Bullet Level -->
<g id="edge31" class="edge"><title>Player Information&#45;&gt;Bullet Level</title>
<path fill="none" stroke="black" d="M530.14,-292.047C557.089,-299.84 590.562,-309.52 617.811,-317.399"/>
<polygon fill="black" stroke="black" points="616.966,-320.798 627.545,-320.214 618.911,-314.074 616.966,-320.798"/>
</g>
<!-- HUD -->
<g id="node36" class="node"><title>HUD</title>
<ellipse fill="none" stroke="black" cx="67.9954" cy="-1006" rx="29.795" ry="18"/>
<text text-anchor="middle" x="67.9954" y="-1002.3" font-family="Times,serif" font-size="14.00">HUD</text>
</g>
<!-- HUD Text -->
<g id="node37" class="node"><title>HUD Text</title>
<ellipse fill="none" stroke="black" cx="256.082" cy="-1060" rx="48.1917" ry="18"/>
<text text-anchor="middle" x="256.082" y="-1056.3" font-family="Times,serif" font-size="14.00">HUD Text</text>
</g>
<!-- HUD&#45;&gt;HUD Text -->
<g id="edge1" class="edge"><title>HUD&#45;&gt;HUD Text</title>
<path fill="none" stroke="black" d="M95.0969,-1014.1C120.722,-1022.05 155.991,-1033 155.991,-1033 155.991,-1033 181.628,-1039.99 206.822,-1046.85"/>
<polygon fill="black" stroke="black" points="206.202,-1050.31 216.771,-1049.56 208.043,-1043.56 206.202,-1050.31"/>
</g>
<!-- HUD Pictures -->
<g id="node38" class="node"><title>HUD Pictures</title>
<ellipse fill="none" stroke="black" cx="256.082" cy="-1006" rx="60.3893" ry="18"/>
<text text-anchor="middle" x="256.082" y="-1002.3" font-family="Times,serif" font-size="14.00">HUD Pictures</text>
</g>
<!-- HUD&#45;&gt;HUD Pictures -->
<g id="edge2" class="edge"><title>HUD&#45;&gt;HUD Pictures</title>
<path fill="none" stroke="black" d="M98.0714,-1006C121.398,-1006 155.122,-1006 185.341,-1006"/>
<polygon fill="black" stroke="black" points="185.435,-1009.5 195.435,-1006 185.435,-1002.5 185.435,-1009.5"/>
</g>
<!-- HUD Rects -->
<g id="node39" class="node"><title>HUD Rects</title>
<ellipse fill="none" stroke="black" cx="256.082" cy="-952" rx="51.9908" ry="18"/>
<text text-anchor="middle" x="256.082" y="-948.3" font-family="Times,serif" font-size="14.00">HUD Rects</text>
</g>
<!-- HUD&#45;&gt;HUD Rects -->
<g id="edge3" class="edge"><title>HUD&#45;&gt;HUD Rects</title>
<path fill="none" stroke="black" d="M95.0969,-997.899C120.722,-989.946 155.991,-979 155.991,-979 155.991,-979 180.426,-972.342 205.028,-965.638"/>
<polygon fill="black" stroke="black" points="206.05,-968.988 214.778,-962.982 204.209,-962.234 206.05,-968.988"/>
</g>
<!-- ENG -->
<g id="node40" class="node"><title>ENG</title>
<ellipse fill="none" stroke="black" cx="67.9954" cy="-1141" rx="28.6953" ry="18"/>
<text text-anchor="middle" x="67.9954" y="-1137.3" font-family="Times,serif" font-size="14.00">ENG</text>
</g>
<!-- ENG rendering functions -->
<g id="node41" class="node"><title>ENG rendering functions</title>
<ellipse fill="none" stroke="black" cx="256.082" cy="-1168" rx="100.182" ry="18"/>
<text text-anchor="middle" x="256.082" y="-1164.3" font-family="Times,serif" font-size="14.00">ENG rendering functions</text>
</g>
<!-- ENG&#45;&gt;ENG rendering functions -->
<g id="edge4" class="edge"><title>ENG&#45;&gt;ENG rendering functions</title>
<path fill="none" stroke="black" d="M96.054,-1144.93C115.093,-1147.69 141.725,-1151.55 167.759,-1155.33"/>
<polygon fill="black" stroke="black" points="167.291,-1158.8 177.69,-1156.77 168.296,-1151.87 167.291,-1158.8"/>
</g>
<!-- ENG logic functions -->
<g id="node42" class="node"><title>ENG logic functions</title>
<ellipse fill="none" stroke="black" cx="256.082" cy="-1114" rx="83.6854" ry="18"/>
<text text-anchor="middle" x="256.082" y="-1110.3" font-family="Times,serif" font-size="14.00">ENG logic functions</text>
</g>
<!-- ENG&#45;&gt;ENG logic functions -->
<g id="edge5" class="edge"><title>ENG&#45;&gt;ENG logic functions</title>
<path fill="none" stroke="black" d="M96.054,-1137.07C117.154,-1134.01 147.581,-1129.6 176.183,-1125.45"/>
<polygon fill="black" stroke="black" points="176.812,-1128.89 186.205,-1123.99 175.806,-1121.97 176.812,-1128.89"/>
</g>
</g>
</svg>
