<?xml version="1.0" encoding="UTF-8" standalone="no"?>
<!DOCTYPE svg PUBLIC "-//W3C//DTD SVG 1.1//EN"
 "http://www.w3.org/Graphics/SVG/1.1/DTD/svg11.dtd">
<!-- Generated by graphviz version 2.38.0 (20140413.2041)
 -->
<!-- Title: Letvezi Pages: 1 -->
<svg width="871pt" height="942pt"
 viewBox="0.00 0.00 870.74 942.00" xmlns="http://www.w3.org/2000/svg" xmlns:xlink="http://www.w3.org/1999/xlink">
<g id="graph0" class="graph" transform="scale(1 1) rotate(0) translate(4 938)">
<title>Letvezi</title>
<polygon fill="white" stroke="none" points="-4,4 -4,-938 866.74,-938 866.74,4 -4,4"/>
<g id="clust1" class="cluster"><title>cluster_main</title>
<polygon fill="none" stroke="none" points="8,-403 8,-509 127.991,-509 127.991,-403 8,-403"/>
</g>
<g id="clust3" class="cluster"><title>cluster_common</title>
<polygon fill="none" stroke="none" points="147.991,-658 147.991,-926 668.852,-926 668.852,-658 147.991,-658"/>
</g>
<g id="clust4" class="cluster"><title>cluster_game_state</title>
<polygon fill="none" stroke="none" points="157.74,-8 157.74,-650 854.74,-650 854.74,-8 157.74,-8"/>
</g>
<g id="clust5" class="cluster"><title>cluster_s_menu</title>
<polygon fill="none" stroke="none" points="341.927,-76 341.927,-128 473.616,-128 473.616,-76 341.927,-76"/>
</g>
<g id="clust6" class="cluster"><title>cluster_s_high_scores</title>
<polygon fill="none" stroke="none" points="367.275,-16 367.275,-68 448.269,-68 448.269,-16 367.275,-16"/>
</g>
<g id="clust7" class="cluster"><title>cluster_s_running</title>
<polygon fill="none" stroke="none" points="313.779,-136 313.779,-642 846.74,-642 846.74,-136 313.779,-136"/>
</g>
<g id="clust8" class="cluster"><title>cluster_r_entities</title>
<polygon fill="none" stroke="none" points="343.877,-366 343.877,-634 838.74,-634 838.74,-366 343.877,-366"/>
</g>
<g id="clust12" class="cluster"><title>cluster_r_player_info</title>
<polygon fill="none" stroke="none" points="321.779,-144 321.779,-358 666.253,-358 666.253,-144 321.779,-144"/>
</g>
<!-- Game State -->
<g id="node1" class="node"><title>Game State</title>
<ellipse fill="none" stroke="black" cx="67.9954" cy="-483" rx="51.9908" ry="18"/>
<text text-anchor="middle" x="67.9954" y="-479.3" font-family="Times,serif" font-size="14.00">Game State</text>
</g>
<!-- Scene State -->
<g id="node2" class="node"><title>Scene State</title>
<ellipse fill="none" stroke="black" cx="67.9954" cy="-429" rx="51.9908" ry="18"/>
<text text-anchor="middle" x="67.9954" y="-425.3" font-family="Times,serif" font-size="14.00">Scene State</text>
</g>
<!-- Game State&#45;&gt;Scene State -->
<g id="edge11" class="edge"><title>Game State&#45;&gt;Scene State</title>
<path fill="none" stroke="black" d="M67.9954,-465.052C67.9954,-465.018 67.9954,-465 67.9954,-465 67.9954,-465 67.9954,-461.304 67.9954,-457.257"/>
<polygon fill="black" stroke="black" points="71.4955,-456.948 67.9954,-446.948 64.4955,-456.948 71.4955,-456.948"/>
</g>
<!-- Persistent Data -->
<g id="node3" class="node"><title>Persistent Data</title>
<ellipse fill="none" stroke="black" cx="219.685" cy="-684" rx="63.8893" ry="18"/>
<text text-anchor="middle" x="219.685" y="-680.3" font-family="Times,serif" font-size="14.00">Persistent Data</text>
</g>
<!-- Game State&#45;&gt;Persistent Data -->
<g id="edge9" class="edge"><title>Game State&#45;&gt;Persistent Data</title>
<path fill="none" stroke="black" d="M77.3,-500.977C97.5817,-544.88 147.991,-654 147.991,-654 147.991,-654 159.884,-659.047 173.913,-665.001"/>
<polygon fill="black" stroke="black" points="172.765,-668.315 183.338,-669 175.5,-661.872 172.765,-668.315"/>
</g>
<!-- Extra -->
<g id="node6" class="node"><title>Extra</title>
<ellipse fill="none" stroke="black" cx="219.685" cy="-819" rx="29.795" ry="18"/>
<text text-anchor="middle" x="219.685" y="-815.3" font-family="Times,serif" font-size="14.00">Extra</text>
</g>
<!-- Game State&#45;&gt;Extra -->
<g id="edge10" class="edge"><title>Game State&#45;&gt;Extra</title>
<path fill="none" stroke="black" d="M75.194,-500.891C93.8164,-554.64 147.991,-711 147.991,-711 147.991,-711 181.215,-761.757 202.11,-793.679"/>
<polygon fill="black" stroke="black" points="199.234,-795.675 207.639,-802.125 205.091,-791.841 199.234,-795.675"/>
</g>
<!-- Running -->
<g id="node13" class="node"><title>Running</title>
<ellipse fill="none" stroke="black" cx="219.685" cy="-375" rx="40.8928" ry="18"/>
<text text-anchor="middle" x="219.685" y="-371.3" font-family="Times,serif" font-size="14.00">Running</text>
</g>
<!-- Scene State&#45;&gt;Running -->
<g id="edge16" class="edge"><title>Scene State&#45;&gt;Running</title>
<path fill="none" stroke="black" d="M104.85,-416.066C126.112,-408.396 153.198,-398.624 175.614,-390.538"/>
<polygon fill="black" stroke="black" points="175.899,-390.435 180.186,-384.636 187.187,-386.363 182.9,-392.162 175.899,-390.435"/>
</g>
<!-- Menu -->
<g id="node14" class="node"><title>Menu</title>
<ellipse fill="none" stroke="black" cx="219.685" cy="-321" rx="31.6951" ry="18"/>
<text text-anchor="middle" x="219.685" y="-317.3" font-family="Times,serif" font-size="14.00">Menu</text>
</g>
<!-- Scene State&#45;&gt;Menu -->
<g id="edge12" class="edge"><title>Scene State&#45;&gt;Menu</title>
<path fill="none" stroke="black" d="M85.7483,-411.822C108.937,-388.045 147.991,-348 147.991,-348 147.991,-348 164.228,-341.799 181.139,-335.34"/>
<polygon fill="black" stroke="black" points="181.552,-335.182 185.73,-329.305 192.763,-330.9 188.585,-336.778 181.552,-335.182"/>
</g>
<!-- High Scores -->
<g id="node15" class="node"><title>High Scores</title>
<ellipse fill="none" stroke="black" cx="219.685" cy="-267" rx="53.8905" ry="18"/>
<text text-anchor="middle" x="219.685" y="-263.3" font-family="Times,serif" font-size="14.00">High Scores</text>
</g>
<!-- Scene State&#45;&gt;High Scores -->
<g id="edge13" class="edge"><title>Scene State&#45;&gt;High Scores</title>
<path fill="none" stroke="black" d="M82.3959,-411.477C104.934,-376.583 147.991,-303 147.991,-303 147.991,-303 165.994,-296.124 183.83,-288.156"/>
<polygon fill="black" stroke="black" points="183.86,-288.142 187.626,-281.993 194.751,-283.104 190.985,-289.254 183.86,-288.142"/>
</g>
<!-- Credits -->
<g id="node16" class="node"><title>Credits</title>
<ellipse fill="none" stroke="black" cx="219.685" cy="-483" rx="36.2938" ry="18"/>
<text text-anchor="middle" x="219.685" y="-479.3" font-family="Times,serif" font-size="14.00">Credits</text>
</g>
<!-- Scene State&#45;&gt;Credits -->
<g id="edge14" class="edge"><title>Scene State&#45;&gt;Credits</title>
<path fill="none" stroke="black" d="M96.4508,-444.269C118.091,-453.559 148.711,-464.897 173.89,-473.081"/>
<polygon fill="black" stroke="black" points="173.943,-473.098 180.869,-471.091 185.386,-476.712 178.46,-478.719 173.943,-473.098"/>
</g>
<!-- Quit Game -->
<g id="node17" class="node"><title>Quit Game</title>
<ellipse fill="none" stroke="black" cx="219.685" cy="-429" rx="50.0912" ry="18"/>
<text text-anchor="middle" x="219.685" y="-425.3" font-family="Times,serif" font-size="14.00">Quit Game</text>
</g>
<!-- Scene State&#45;&gt;Quit Game -->
<g id="edge15" class="edge"><title>Scene State&#45;&gt;Quit Game</title>
<path fill="none" stroke="black" d="M120.091,-429C132.097,-429 145.012,-429 157.413,-429"/>
<polygon fill="black" stroke="black" points="157.589,-429 163.589,-425 169.589,-429 163.589,-433 157.589,-429"/>
</g>
<!-- High Scores [on disk] -->
<g id="node4" class="node"><title>High Scores [on disk]</title>
<ellipse fill="none" stroke="black" cx="407.772" cy="-684" rx="88.2844" ry="18"/>
<text text-anchor="middle" x="407.772" y="-680.3" font-family="Times,serif" font-size="14.00">High Scores [on disk]</text>
</g>
<!-- Persistent Data&#45;&gt;High Scores [on disk] -->
<g id="edge1" class="edge"><title>Persistent Data&#45;&gt;High Scores [on disk]</title>
<path fill="none" stroke="black" d="M283.426,-684C291.692,-684 300.317,-684 308.997,-684"/>
<polygon fill="black" stroke="black" points="309.193,-687.5 319.193,-684 309.193,-680.5 309.193,-687.5"/>
</g>
<!-- User information -->
<g id="node5" class="node"><title>User information</title>
<ellipse fill="none" stroke="black" cx="407.772" cy="-738" rx="71.4873" ry="18"/>
<text text-anchor="middle" x="407.772" y="-734.3" font-family="Times,serif" font-size="14.00">User information</text>
</g>
<!-- Persistent Data&#45;&gt;User information -->
<g id="edge2" class="edge"><title>Persistent Data&#45;&gt;User information</title>
<path fill="none" stroke="black" d="M264.785,-696.797C290.343,-704.214 322.788,-713.629 350.21,-721.587"/>
<polygon fill="black" stroke="black" points="349.484,-725.02 360.064,-724.446 351.435,-718.298 349.484,-725.02"/>
</g>
<!-- Background entities -->
<g id="node7" class="node"><title>Background entities</title>
<ellipse fill="none" stroke="black" cx="407.772" cy="-792" rx="81.4863" ry="18"/>
<text text-anchor="middle" x="407.772" y="-788.3" font-family="Times,serif" font-size="14.00">Background entities</text>
</g>
<!-- Extra&#45;&gt;Background entities -->
<g id="edge3" class="edge"><title>Extra&#45;&gt;Background entities</title>
<path fill="none" stroke="black" d="M248.948,-814.899C270.321,-811.798 300.748,-807.383 329.192,-803.256"/>
<polygon fill="black" stroke="black" points="329.758,-806.711 339.152,-801.811 328.753,-799.783 329.758,-806.711"/>
</g>
<!-- RNGs -->
<g id="node8" class="node"><title>RNGs</title>
<ellipse fill="none" stroke="black" cx="407.772" cy="-846" rx="32.4942" ry="18"/>
<text text-anchor="middle" x="407.772" y="-842.3" font-family="Times,serif" font-size="14.00">RNGs</text>
</g>
<!-- Extra&#45;&gt;RNGs -->
<g id="edge5" class="edge"><title>Extra&#45;&gt;RNGs</title>
<path fill="none" stroke="black" d="M248.948,-823.101C280.133,-827.626 330.595,-834.947 366.045,-840.091"/>
<polygon fill="black" stroke="black" points="365.672,-843.573 376.071,-841.546 366.677,-836.646 365.672,-843.573"/>
</g>
<!-- Defaults -->
<g id="node9" class="node"><title>Defaults</title>
<ellipse fill="none" stroke="black" cx="407.772" cy="-900" rx="40.0939" ry="18"/>
<text text-anchor="middle" x="407.772" y="-896.3" font-family="Times,serif" font-size="14.00">Defaults</text>
</g>
<!-- Extra&#45;&gt;Defaults -->
<g id="edge6" class="edge"><title>Extra&#45;&gt;Defaults</title>
<path fill="none" stroke="black" d="M241.809,-831.253C269.276,-847.186 313.779,-873 313.779,-873 313.779,-873 339.27,-880.401 363.56,-887.454"/>
<polygon fill="black" stroke="black" points="362.882,-890.901 373.462,-890.329 364.834,-884.179 362.882,-890.901"/>
</g>
<!-- Stars -->
<g id="node10" class="node"><title>Stars</title>
<ellipse fill="none" stroke="black" cx="596.508" cy="-792" rx="28.6953" ry="18"/>
<text text-anchor="middle" x="596.508" y="-788.3" font-family="Times,serif" font-size="14.00">Stars</text>
</g>
<!-- Background entities&#45;&gt;Stars -->
<g id="edge4" class="edge"><title>Background entities&#45;&gt;Stars</title>
<path fill="none" stroke="black" d="M489.048,-792C512.845,-792 537.8,-792 557.562,-792"/>
<polygon fill="black" stroke="black" points="557.678,-795.5 567.678,-792 557.678,-788.5 557.678,-795.5"/>
</g>
<!-- Player Position -->
<g id="node11" class="node"><title>Player Position</title>
<ellipse fill="none" stroke="black" cx="596.508" cy="-900" rx="64.189" ry="18"/>
<text text-anchor="middle" x="596.508" y="-896.3" font-family="Times,serif" font-size="14.00">Player Position</text>
</g>
<!-- Defaults&#45;&gt;Player Position -->
<g id="edge7" class="edge"><title>Defaults&#45;&gt;Player Position</title>
<path fill="none" stroke="black" d="M448.374,-900C469.733,-900 496.788,-900 521.856,-900"/>
<polygon fill="black" stroke="black" points="522.084,-903.5 532.084,-900 522.084,-896.5 522.084,-903.5"/>
</g>
<!-- Resolution -->
<g id="node12" class="node"><title>Resolution</title>
<ellipse fill="none" stroke="black" cx="596.508" cy="-846" rx="48.9926" ry="18"/>
<text text-anchor="middle" x="596.508" y="-842.3" font-family="Times,serif" font-size="14.00">Resolution</text>
</g>
<!-- Defaults&#45;&gt;Resolution -->
<g id="edge8" class="edge"><title>Defaults&#45;&gt;Resolution</title>
<path fill="none" stroke="black" d="M442.156,-890.346C471.533,-881.851 514.649,-869.383 547.687,-859.829"/>
<polygon fill="black" stroke="black" points="548.957,-863.105 557.591,-856.965 547.012,-856.381 548.957,-863.105"/>
</g>
<!-- Entities -->
<g id="node20" class="node"><title>Entities</title>
<ellipse fill="none" stroke="black" cx="407.772" cy="-473" rx="37.8943" ry="18"/>
<text text-anchor="middle" x="407.772" y="-469.3" font-family="Times,serif" font-size="14.00">Entities</text>
</g>
<!-- Running&#45;&gt;Entities -->
<g id="edge21" class="edge"><title>Running&#45;&gt;Entities</title>
<path fill="none" stroke="black" d="M249.463,-387.394C265.945,-394.492 283.379,-402 283.379,-402 283.379,-402 337.553,-433.172 374.11,-454.206"/>
<polygon fill="black" stroke="black" points="372.567,-457.357 382.98,-459.31 376.058,-451.289 372.567,-457.357"/>
</g>
<!-- Player Information -->
<g id="node31" class="node"><title>Player Information</title>
<ellipse fill="none" stroke="black" cx="407.772" cy="-278" rx="77.9862" ry="18"/>
<text text-anchor="middle" x="407.772" y="-274.3" font-family="Times,serif" font-size="14.00">Player Information</text>
</g>
<!-- Running&#45;&gt;Player Information -->
<g id="edge22" class="edge"><title>Running&#45;&gt;Player Information</title>
<path fill="none" stroke="black" d="M249.463,-362.606C265.945,-355.508 283.379,-348 283.379,-348 283.379,-348 332.103,-320.359 368.316,-299.816"/>
<polygon fill="black" stroke="black" points="370.245,-302.745 377.216,-294.767 366.791,-296.657 370.245,-302.745"/>
</g>
<!-- Menu entries -->
<g id="node18" class="node"><title>Menu entries</title>
<ellipse fill="none" stroke="black" cx="407.772" cy="-102" rx="57.6901" ry="18"/>
<text text-anchor="middle" x="407.772" y="-98.3" font-family="Times,serif" font-size="14.00">Menu entries</text>
</g>
<!-- Menu&#45;&gt;Menu entries -->
<g id="edge17" class="edge"><title>Menu&#45;&gt;Menu entries</title>
<path fill="none" stroke="black" d="M245.464,-310.329C262.988,-302.782 283.379,-294 283.379,-294 283.379,-294 313.779,-140 313.779,-140 313.779,-140 338.495,-129.9 362.443,-120.114"/>
<polygon fill="black" stroke="black" points="363.947,-123.281 371.88,-116.258 361.299,-116.801 363.947,-123.281"/>
</g>
<!-- High Scores&#45;&gt;Scene State -->
<g id="edge19" class="edge"><title>High Scores&#45;&gt;Scene State</title>
<path fill="none" stroke="black" d="M172.716,-276.126C159.214,-280.714 147.991,-285 147.991,-285 147.991,-285 103.78,-360.555 81.507,-402.386"/>
<polygon fill="black" stroke="black" points="78.4027,-400.77 76.8586,-411.252 84.6021,-404.021 78.4027,-400.77"/>
<text text-anchor="middle" x="81.7219" y="-321.064" font-family="Times,serif" font-size="14.00">Previous State</text>
</g>
<!-- Points -->
<g id="node19" class="node"><title>Points</title>
<ellipse fill="none" stroke="black" cx="407.772" cy="-42" rx="32.4942" ry="18"/>
<text text-anchor="middle" x="407.772" y="-38.3" font-family="Times,serif" font-size="14.00">Points</text>
</g>
<!-- High Scores&#45;&gt;Points -->
<g id="edge18" class="edge"><title>High Scores&#45;&gt;Points</title>
<path fill="none" stroke="black" stroke-dasharray="5,2" d="M229.276,-249.004C252.322,-200.73 313.779,-72 313.779,-72 313.779,-72 343.786,-62.3194 369.709,-53.9565"/>
<polygon fill="black" stroke="black" points="370.931,-57.24 379.374,-50.8387 368.782,-50.5781 370.931,-57.24"/>
</g>
<!-- Credits&#45;&gt;Scene State -->
<g id="edge20" class="edge"><title>Credits&#45;&gt;Scene State</title>
<path fill="none" stroke="black" d="M195.422,-469.555C175.873,-460.928 147.182,-450.099 122.072,-441.658"/>
<polygon fill="black" stroke="black" points="122.885,-438.24 112.292,-438.433 120.693,-444.888 122.885,-438.24"/>
<text text-anchor="middle" x="198.247" y="-451.907" font-family="Times,serif" font-size="14.00">Previous State</text>
</g>
<!-- Position -->
<g id="node21" class="node"><title>Position</title>
<ellipse fill="none" stroke="black" cx="407.772" cy="-527" rx="39.7935" ry="18"/>
<text text-anchor="middle" x="407.772" y="-523.3" font-family="Times,serif" font-size="14.00">Position</text>
</g>
<!-- Entities&#45;&gt;Position -->
<g id="edge32" class="edge"><title>Entities&#45;&gt;Position</title>
<path fill="none" stroke="black" d="M407.772,-490.948C407.772,-490.982 407.772,-491 407.772,-491 407.772,-491 407.772,-494.696 407.772,-498.743"/>
<polygon fill="black" stroke="black" points="404.272,-499.052 407.772,-509.052 411.272,-499.052 404.272,-499.052"/>
</g>
<!-- Acceleration -->
<g id="node22" class="node"><title>Acceleration</title>
<ellipse fill="none" stroke="black" cx="407.772" cy="-581" rx="55.7903" ry="18"/>
<text text-anchor="middle" x="407.772" y="-577.3" font-family="Times,serif" font-size="14.00">Acceleration</text>
</g>
<!-- Entities&#45;&gt;Acceleration -->
<g id="edge33" class="edge"><title>Entities&#45;&gt;Acceleration</title>
<path fill="none" stroke="black" d="M375.425,-482.292C348.236,-490.102 313.779,-500 313.779,-500 313.779,-500 298.579,-509 298.579,-509 298.579,-509 298.579,-545 298.579,-545 298.579,-545 313.779,-554 313.779,-554 313.779,-554 334.354,-559.91 356.252,-566.201"/>
<polygon fill="black" stroke="black" points="355.42,-569.603 365.998,-569 357.353,-562.875 355.42,-569.603"/>
</g>
<!-- Player -->
<g id="node23" class="node"><title>Player</title>
<ellipse fill="none" stroke="black" cx="596.508" cy="-554" rx="33.2948" ry="18"/>
<text text-anchor="middle" x="596.508" y="-550.3" font-family="Times,serif" font-size="14.00">Player</text>
</g>
<!-- Entities&#45;&gt;Player -->
<g id="edge27" class="edge"><title>Entities&#45;&gt;Player</title>
<path fill="none" stroke="black" d="M439.829,-482.595C464.948,-490.356 496.164,-500 496.164,-500 496.164,-500 532.164,-527 532.164,-527 532.164,-527 544.643,-532.319 558.523,-538.235"/>
<polygon fill="black" stroke="black" points="558.704,-538.313 565.792,-536.986 569.744,-543.018 562.656,-544.345 558.704,-538.313"/>
</g>
<!-- Enemy -->
<g id="node24" class="node"><title>Enemy</title>
<ellipse fill="none" stroke="black" cx="596.508" cy="-608" rx="36.2938" ry="18"/>
<text text-anchor="middle" x="596.508" y="-604.3" font-family="Times,serif" font-size="14.00">Enemy</text>
</g>
<!-- Entities&#45;&gt;Enemy -->
<g id="edge28" class="edge"><title>Entities&#45;&gt;Enemy</title>
<path fill="none" stroke="black" d="M439.829,-482.595C464.948,-490.356 496.164,-500 496.164,-500 496.164,-500 532.164,-581 532.164,-581 532.164,-581 543.727,-585.929 556.972,-591.574"/>
<polygon fill="black" stroke="black" points="557.238,-591.688 564.326,-590.361 568.277,-596.393 561.189,-597.72 557.238,-591.688"/>
</g>
<!-- Powerups -->
<g id="node25" class="node"><title>Powerups</title>
<ellipse fill="none" stroke="black" cx="596.508" cy="-392" rx="45.4919" ry="18"/>
<text text-anchor="middle" x="596.508" y="-388.3" font-family="Times,serif" font-size="14.00">Powerups</text>
</g>
<!-- Entities&#45;&gt;Powerups -->
<g id="edge29" class="edge"><title>Entities&#45;&gt;Powerups</title>
<path fill="none" stroke="black" d="M436.156,-461.016C472.509,-445.107 532.164,-419 532.164,-419 532.164,-419 541.887,-414.856 553.714,-409.814"/>
<polygon fill="black" stroke="black" points="553.91,-409.731 557.861,-403.698 564.949,-405.025 560.998,-411.058 553.91,-409.731"/>
</g>
<!-- Enemy Bullet -->
<g id="node26" class="node"><title>Enemy Bullet</title>
<ellipse fill="none" stroke="black" cx="596.508" cy="-446" rx="59.5901" ry="18"/>
<text text-anchor="middle" x="596.508" y="-442.3" font-family="Times,serif" font-size="14.00">Enemy Bullet</text>
</g>
<!-- Entities&#45;&gt;Enemy Bullet -->
<g id="edge31" class="edge"><title>Entities&#45;&gt;Enemy Bullet</title>
<path fill="none" stroke="black" d="M444.335,-467.858C468.594,-464.35 501.437,-459.602 530.313,-455.427"/>
<polygon fill="black" stroke="black" points="530.532,-455.395 535.898,-450.577 542.409,-453.678 537.043,-458.495 530.532,-455.395"/>
</g>
<!-- Player Bullet -->
<g id="node27" class="node"><title>Player Bullet</title>
<ellipse fill="none" stroke="black" cx="596.508" cy="-500" rx="57.3905" ry="18"/>
<text text-anchor="middle" x="596.508" y="-496.3" font-family="Times,serif" font-size="14.00">Player Bullet</text>
</g>
<!-- Entities&#45;&gt;Player Bullet -->
<g id="edge30" class="edge"><title>Entities&#45;&gt;Player Bullet</title>
<path fill="none" stroke="black" d="M444.335,-478.142C469.057,-481.717 502.693,-486.58 531.962,-490.812"/>
<polygon fill="black" stroke="black" points="532.322,-490.864 538.833,-487.764 544.199,-492.581 537.688,-495.681 532.322,-490.864"/>
</g>
<!-- Enemy Health -->
<g id="node28" class="node"><title>Enemy Health</title>
<ellipse fill="none" stroke="black" cx="763.796" cy="-608" rx="61.99" ry="18"/>
<text text-anchor="middle" x="763.796" y="-604.3" font-family="Times,serif" font-size="14.00">Enemy Health</text>
</g>
<!-- Enemy&#45;&gt;Enemy Health -->
<g id="edge34" class="edge"><title>Enemy&#45;&gt;Enemy Health</title>
<path fill="none" stroke="black" d="M632.967,-608C650.17,-608 671.476,-608 691.819,-608"/>
<polygon fill="black" stroke="black" points="692.023,-611.5 702.023,-608 692.023,-604.5 692.023,-611.5"/>
</g>
<!-- Shield Powerup -->
<g id="node29" class="node"><title>Shield Powerup</title>
<ellipse fill="none" stroke="black" cx="763.796" cy="-392" rx="66.8882" ry="18"/>
<text text-anchor="middle" x="763.796" y="-388.3" font-family="Times,serif" font-size="14.00">Shield Powerup</text>
</g>
<!-- Powerups&#45;&gt;Shield Powerup -->
<g id="edge35" class="edge"><title>Powerups&#45;&gt;Shield Powerup</title>
<path fill="none" stroke="black" d="M642.237,-392C655.309,-392 669.996,-392 684.503,-392"/>
<polygon fill="black" stroke="black" points="684.608,-392 690.608,-388 696.608,-392 690.608,-396 684.608,-392"/>
</g>
<!-- Bullet Powerup -->
<g id="node30" class="node"><title>Bullet Powerup</title>
<ellipse fill="none" stroke="black" cx="763.796" cy="-446" rx="65.7887" ry="18"/>
<text text-anchor="middle" x="763.796" y="-442.3" font-family="Times,serif" font-size="14.00">Bullet Powerup</text>
</g>
<!-- Powerups&#45;&gt;Bullet Powerup -->
<g id="edge36" class="edge"><title>Powerups&#45;&gt;Bullet Powerup</title>
<path fill="none" stroke="black" d="M632.158,-403.32C654.468,-410.609 683.919,-420.231 709.21,-428.493"/>
<polygon fill="black" stroke="black" points="709.461,-428.575 716.407,-426.636 720.868,-432.302 713.922,-434.241 709.461,-428.575"/>
</g>
<!-- Current Points -->
<g id="node32" class="node"><title>Current Points</title>
<ellipse fill="none" stroke="black" cx="596.508" cy="-170" rx="61.99" ry="18"/>
<text text-anchor="middle" x="596.508" y="-166.3" font-family="Times,serif" font-size="14.00">Current Points</text>
</g>
<!-- Player Information&#45;&gt;Current Points -->
<g id="edge23" class="edge"><title>Player Information&#45;&gt;Current Points</title>
<path fill="none" stroke="black" d="M434.639,-261.02C470.821,-237.268 532.164,-197 532.164,-197 532.164,-197 540.659,-193.379 551.427,-188.789"/>
<polygon fill="black" stroke="black" points="553.044,-191.905 560.871,-184.764 550.299,-185.465 553.044,-191.905"/>
</g>
<!-- Health -->
<g id="node33" class="node"><title>Health</title>
<ellipse fill="none" stroke="black" cx="596.508" cy="-224" rx="34.394" ry="18"/>
<text text-anchor="middle" x="596.508" y="-220.3" font-family="Times,serif" font-size="14.00">Health</text>
</g>
<!-- Player Information&#45;&gt;Health -->
<g id="edge24" class="edge"><title>Player Information&#45;&gt;Health</title>
<path fill="none" stroke="black" d="M457.347,-263.953C488.184,-255.036 527.564,-243.648 556.385,-235.313"/>
<polygon fill="black" stroke="black" points="557.474,-238.642 566.108,-232.502 555.529,-231.918 557.474,-238.642"/>
</g>
<!-- Shield -->
<g id="node34" class="node"><title>Shield</title>
<ellipse fill="none" stroke="black" cx="596.508" cy="-278" rx="33.2948" ry="18"/>
<text text-anchor="middle" x="596.508" y="-274.3" font-family="Times,serif" font-size="14.00">Shield</text>
</g>
<!-- Player Information&#45;&gt;Shield -->
<g id="edge25" class="edge"><title>Player Information&#45;&gt;Shield</title>
<path fill="none" stroke="black" d="M485.803,-278C508.796,-278 533.154,-278 553.062,-278"/>
<polygon fill="black" stroke="black" points="553.331,-281.5 563.331,-278 553.331,-274.5 553.331,-281.5"/>
</g>
<!-- Bullet Level -->
<g id="node35" class="node"><title>Bullet Level</title>
<ellipse fill="none" stroke="black" cx="596.508" cy="-332" rx="54.6905" ry="18"/>
<text text-anchor="middle" x="596.508" y="-328.3" font-family="Times,serif" font-size="14.00">Bullet Level</text>
</g>
<!-- Player Information&#45;&gt;Bullet Level -->
<g id="edge26" class="edge"><title>Player Information&#45;&gt;Bullet Level</title>
<path fill="none" stroke="black" d="M457.347,-292.047C484.296,-299.84 517.769,-309.52 545.018,-317.399"/>
<polygon fill="black" stroke="black" points="544.173,-320.798 554.752,-320.214 546.117,-314.074 544.173,-320.798"/>
</g>
</g>
</svg>
